<svg xmlns="http://www.w3.org/2000/svg" xmlns:xlink="http://www.w3.org/1999/xlink" contentStyleType="text/css" height="837px" preserveAspectRatio="none" style="width:3598px;height:837px;background:#FFFFFF;" version="1.1" viewBox="0 0 3598 837" width="3598px" zoomAndPan="magnify"><defs/><g><!--cluster P--><g id="cluster_P"><rect fill="none" height="824.09" rx="2.5" ry="2.5" style="stroke:#181818;stroke-width:1.0;" width="3286" x="306" y="7"/><text fill="#000000" font-family="sans-serif" font-size="14" font-weight="bold" lengthAdjust="spacing" textLength="69" x="1914.5" y="21.9951">physicsx</text></g><!--cluster DN--><g id="cluster_DN"><rect fill="none" height="394.42" rx="2.5" ry="2.5" style="stroke:#181818;stroke-width:1.0;" width="999" x="1730" y="50"/><text fill="#000000" font-family="sans-serif" font-size="14" font-weight="bold" lengthAdjust="spacing" textLength="112" x="2173.5" y="64.9951">differentiation</text></g><!--cluster DR--><g id="cluster_DR"><rect fill="none" height="255.89" rx="2.5" ry="2.5" style="stroke:#181818;stroke-width:1.0;" width="1386" x="2182" y="543.05"/><text fill="#000000" font-family="sans-serif" font-size="14" font-weight="bold" lengthAdjust="spacing" textLength="114" x="2818" y="558.0451">differentiators</text></g><!--cluster ES--><g id="cluster_ES"><rect fill="none" height="272.19" rx="2.5" ry="2.5" style="stroke:#181818;stroke-width:1.0;" width="1828" x="330" y="534.9"/><text fill="#000000" font-family="sans-serif" font-size="14" font-weight="bold" lengthAdjust="spacing" textLength="88" x="1200" y="549.8951">odesolvers</text></g><!--class SV4--><g id="elem_SV4"><rect codeLine="3" fill="#F1F1F1" height="162.0781" id="SV4" rx="2.5" ry="2.5" style="stroke:#181818;stroke-width:0.5;" width="436" x="2942" y="44.26"/><ellipse cx="3110.75" cy="60.26" fill="#ADD1B2" rx="11" ry="11" style="stroke:#181818;stroke-width:1.0;"/><path d="M3113.7188,65.9006 Q3113.1406,66.1975 3112.5,66.3381 Q3111.8594,66.4944 3111.1563,66.4944 Q3108.6563,66.4944 3107.3281,64.8537 Q3106.0156,63.1975 3106.0156,60.0725 Q3106.0156,56.9475 3107.3281,55.2912 Q3108.6563,53.635 3111.1563,53.635 Q3111.8594,53.635 3112.5,53.7912 Q3113.1563,53.9475 3113.7188,54.2444 L3113.7188,56.9631 Q3113.0938,56.385 3112.5,56.1194 Q3111.9063,55.8381 3111.2813,55.8381 Q3109.9375,55.8381 3109.25,56.9162 Q3108.5625,57.9787 3108.5625,60.0725 Q3108.5625,62.1662 3109.25,63.2444 Q3109.9375,64.3069 3111.2813,64.3069 Q3111.9063,64.3069 3112.5,64.0412 Q3113.0938,63.76 3113.7188,63.1819 L3113.7188,65.9006 Z " fill="#000000"/><text fill="#000000" font-family="sans-serif" font-size="14" lengthAdjust="spacing" textLength="90" x="3131.25" y="65.1067">StateVector4</text><line style="stroke:#181818;stroke-width:0.5;" x1="2943" x2="3377" y1="76.26" y2="76.26"/><ellipse cx="2953" cy="89.9084" fill="none" rx="3" ry="3" style="stroke:#038048;stroke-width:1.0;"/><text fill="#000000" font-family="sans-serif" font-size="14" lengthAdjust="spacing" textLength="68" x="2962" y="93.2551">x : double</text><ellipse cx="2953" cy="106.2053" fill="none" rx="3" ry="3" style="stroke:#038048;stroke-width:1.0;"/><text fill="#000000" font-family="sans-serif" font-size="14" lengthAdjust="spacing" textLength="68" x="2962" y="109.552">y : double</text><ellipse cx="2953" cy="122.5022" fill="none" rx="3" ry="3" style="stroke:#038048;stroke-width:1.0;"/><text fill="#000000" font-family="sans-serif" font-size="14" lengthAdjust="spacing" textLength="75" x="2962" y="125.8489">vx : double</text><ellipse cx="2953" cy="138.7991" fill="none" rx="3" ry="3" style="stroke:#038048;stroke-width:1.0;"/><text fill="#000000" font-family="sans-serif" font-size="14" lengthAdjust="spacing" textLength="75" x="2962" y="142.1457">vy : double</text><line style="stroke:#181818;stroke-width:0.5;" x1="2943" x2="3377" y1="149.4475" y2="149.4475"/><ellipse cx="2953" cy="163.0959" fill="#84BE84" rx="3" ry="3" style="stroke:#038048;stroke-width:1.0;"/><text fill="#000000" font-family="sans-serif" font-size="14" lengthAdjust="spacing" textLength="410" x="2962" y="166.4426">StateVector4(x : double, y : double, vx : double, vy : double)</text><ellipse cx="2953" cy="179.3928" fill="#84BE84" rx="3" ry="3" style="stroke:#038048;stroke-width:1.0;"/><text fill="#000000" font-family="sans-serif" font-size="14" lengthAdjust="spacing" textLength="257" x="2962" y="182.7395">add(sv : StateVector4) : StateVector4</text><ellipse cx="2953" cy="195.6897" fill="#84BE84" rx="3" ry="3" style="stroke:#038048;stroke-width:1.0;"/><text fill="#000000" font-family="sans-serif" font-size="14" lengthAdjust="spacing" textLength="266" x="2962" y="199.0364">multiply(scalar : double) : StateVector4</text></g><!--class PE--><g id="elem_PE"><rect codeLine="13" fill="#F1F1F1" height="243.5625" id="PE" rx="2.5" ry="2.5" style="stroke:#181818;stroke-width:0.5;" width="478" x="890" y="266.34"/><ellipse cx="1074.75" cy="282.34" fill="#ADD1B2" rx="11" ry="11" style="stroke:#181818;stroke-width:1.0;"/><path d="M1077.7188,287.9806 Q1077.1406,288.2775 1076.5,288.4181 Q1075.8594,288.5744 1075.1563,288.5744 Q1072.6563,288.5744 1071.3281,286.9338 Q1070.0156,285.2775 1070.0156,282.1525 Q1070.0156,279.0275 1071.3281,277.3713 Q1072.6563,275.715 1075.1563,275.715 Q1075.8594,275.715 1076.5,275.8713 Q1077.1563,276.0275 1077.7188,276.3244 L1077.7188,279.0431 Q1077.0938,278.465 1076.5,278.1994 Q1075.9063,277.9181 1075.2813,277.9181 Q1073.9375,277.9181 1073.25,278.9963 Q1072.5625,280.0588 1072.5625,282.1525 Q1072.5625,284.2463 1073.25,285.3244 Q1073.9375,286.3869 1075.2813,286.3869 Q1075.9063,286.3869 1076.5,286.1213 Q1077.0938,285.84 1077.7188,285.2619 L1077.7188,287.9806 Z " fill="#000000"/><text fill="#000000" font-family="sans-serif" font-size="14" lengthAdjust="spacing" textLength="100" x="1095.25" y="287.1867">PhysicsEngine</text><line style="stroke:#181818;stroke-width:0.5;" x1="891" x2="1367" y1="298.34" y2="298.34"/><ellipse cx="901" cy="311.9884" fill="none" rx="3" ry="3" style="stroke:#038048;stroke-width:1.0;"/><text fill="#000000" font-family="sans-serif" font-size="14" lengthAdjust="spacing" textLength="192" x="910" y="315.3351">stateVector4 : StateVector4</text><ellipse cx="901" cy="328.2853" fill="none" rx="3" ry="3" style="stroke:#038048;stroke-width:1.0;"/><text fill="#000000" font-family="sans-serif" font-size="14" lengthAdjust="spacing" textLength="279" x="910" y="331.632">odeSolver : "ODESolver&lt;StateVector4&gt;"</text><ellipse cx="901" cy="344.5822" fill="none" rx="3" ry="3" style="stroke:#038048;stroke-width:1.0;"/><text fill="#000000" font-family="sans-serif" font-size="14" lengthAdjust="spacing" textLength="189" x="910" y="347.9289">differentiator : Differentiator</text><line style="stroke:#181818;stroke-width:0.5;" x1="891" x2="1367" y1="355.2306" y2="355.2306"/><ellipse cx="901" cy="368.8791" fill="#84BE84" rx="3" ry="3" style="stroke:#038048;stroke-width:1.0;"/><text fill="#000000" font-family="sans-serif" font-size="14" lengthAdjust="spacing" textLength="452" x="910" y="372.2257">physicsEngine(sv : StateVector4, course : GolfCourse, h : double)</text><ellipse cx="901" cy="385.1759" fill="#84BE84" rx="3" ry="3" style="stroke:#038048;stroke-width:1.0;"/><text fill="#000000" font-family="sans-serif" font-size="14" lengthAdjust="spacing" textLength="136" x="910" y="388.5226">isAtRest() : boolean</text><rect fill="#F24D5C" height="6" style="stroke:#C82930;stroke-width:1.0;" width="6" x="898" y="398.4728"/><text fill="#000000" font-family="sans-serif" font-size="14" lengthAdjust="spacing" textLength="158" x="910" y="404.8195">underwater() : boolean</text><rect fill="#F24D5C" height="6" style="stroke:#C82930;stroke-width:1.0;" width="6" x="898" y="414.7697"/><text fill="#000000" font-family="sans-serif" font-size="14" lengthAdjust="spacing" textLength="181" x="910" y="421.1164">reachedTarget() : boolean</text><rect fill="#F24D5C" height="6" style="stroke:#C82930;stroke-width:1.0;" width="6" x="898" y="431.0666"/><text fill="#000000" font-family="sans-serif" font-size="14" lengthAdjust="spacing" textLength="171" x="910" y="437.4132">outOfBounds() : boolean</text><ellipse cx="901" cy="450.3634" fill="#84BE84" rx="3" ry="3" style="stroke:#038048;stroke-width:1.0;"/><text fill="#000000" font-family="sans-serif" font-size="14" lengthAdjust="spacing" textLength="175" x="910" y="453.7101">nextStep() : StateVector4</text><ellipse cx="901" cy="466.6603" fill="#84BE84" rx="3" ry="3" style="stroke:#038048;stroke-width:1.0;"/><text fill="#000000" font-family="sans-serif" font-size="14" lengthAdjust="spacing" textLength="149" x="910" y="470.007">solve() : StateVector4</text><ellipse cx="901" cy="482.9572" fill="#84BE84" rx="3" ry="3" style="stroke:#038048;stroke-width:1.0;"/><text fill="#000000" font-family="sans-serif" font-size="14" lengthAdjust="spacing" textLength="196" x="910" y="486.3039">iterator() : FrameRateIterator</text><ellipse cx="901" cy="499.2541" fill="#84BE84" rx="3" ry="3" style="stroke:#038048;stroke-width:1.0;"/><text fill="#000000" font-family="sans-serif" font-size="14" lengthAdjust="spacing" textLength="184" x="910" y="502.6007">stepIterator() : StepIterator</text></g><!--class IVD4--><g id="elem_IVD4"><rect codeLine="32" fill="#F1F1F1" height="64.2969" id="IVD4" rx="2.5" ry="2.5" style="stroke:#181818;stroke-width:0.5;" width="285" x="1901.5" y="93.15"/><ellipse cx="1918.3" cy="109.15" fill="#ADD1B2" rx="11" ry="11" style="stroke:#181818;stroke-width:1.0;"/><path d="M1921.2688,114.7906 Q1920.6906,115.0875 1920.05,115.2281 Q1919.4094,115.3844 1918.7063,115.3844 Q1916.2063,115.3844 1914.8781,113.7437 Q1913.5656,112.0875 1913.5656,108.9625 Q1913.5656,105.8375 1914.8781,104.1812 Q1916.2063,102.525 1918.7063,102.525 Q1919.4094,102.525 1920.05,102.6812 Q1920.7063,102.8375 1921.2688,103.1344 L1921.2688,105.8531 Q1920.6438,105.275 1920.05,105.0094 Q1919.4563,104.7281 1918.8313,104.7281 Q1917.4875,104.7281 1916.8,105.8062 Q1916.1125,106.8687 1916.1125,108.9625 Q1916.1125,111.0562 1916.8,112.1344 Q1917.4875,113.1969 1918.8313,113.1969 Q1919.4563,113.1969 1920.05,112.9312 Q1920.6438,112.65 1921.2688,112.0719 L1921.2688,114.7906 Z " fill="#000000"/><text fill="#000000" font-family="sans-serif" font-size="14" lengthAdjust="spacing" textLength="249" x="1932.7" y="113.9967">InstantaneousVectorDifferentiation4</text><line style="stroke:#181818;stroke-width:0.5;" x1="1902.5" x2="2185.5" y1="125.15" y2="125.15"/><line style="stroke:#181818;stroke-width:0.5;" x1="1902.5" x2="2185.5" y1="133.15" y2="133.15"/><ellipse cx="1912.5" cy="146.7984" fill="#84BE84" rx="3" ry="3" style="stroke:#038048;stroke-width:1.0;"/><text fill="#000000" font-family="sans-serif" font-size="14" lengthAdjust="spacing" textLength="259" x="1921.5" y="150.1451">apply(v : StateVector4) : StateVector4</text></g><!--class VD4--><g id="elem_VD4"><rect codeLine="36" fill="#F1F1F1" height="64.2969" id="VD4" rx="2.5" ry="2.5" style="stroke:#181818;stroke-width:0.5;" width="370" x="2343" y="355.97"/><ellipse cx="2448.75" cy="371.97" fill="#ADD1B2" rx="11" ry="11" style="stroke:#181818;stroke-width:1.0;"/><path d="M2451.7188,377.6106 Q2451.1406,377.9075 2450.5,378.0481 Q2449.8594,378.2044 2449.1563,378.2044 Q2446.6563,378.2044 2445.3281,376.5638 Q2444.0156,374.9075 2444.0156,371.7825 Q2444.0156,368.6575 2445.3281,367.0013 Q2446.6563,365.345 2449.1563,365.345 Q2449.8594,365.345 2450.5,365.5013 Q2451.1563,365.6575 2451.7188,365.9544 L2451.7188,368.6731 Q2451.0938,368.095 2450.5,367.8294 Q2449.9063,367.5481 2449.2813,367.5481 Q2447.9375,367.5481 2447.25,368.6263 Q2446.5625,369.6888 2446.5625,371.7825 Q2446.5625,373.8763 2447.25,374.9544 Q2447.9375,376.0169 2449.2813,376.0169 Q2449.9063,376.0169 2450.5,375.7513 Q2451.0938,375.47 2451.7188,374.8919 L2451.7188,377.6106 Z " fill="#000000"/><text fill="#000000" font-family="sans-serif" font-size="14" lengthAdjust="spacing" textLength="150" x="2469.25" y="376.8167">VectorDifferentiation4</text><line style="stroke:#181818;stroke-width:0.5;" x1="2344" x2="2712" y1="387.97" y2="387.97"/><line style="stroke:#181818;stroke-width:0.5;" x1="2344" x2="2712" y1="395.97" y2="395.97"/><ellipse cx="2354" cy="409.6184" fill="#84BE84" rx="3" ry="3" style="stroke:#038048;stroke-width:1.0;"/><text fill="#000000" font-family="sans-serif" font-size="14" lengthAdjust="spacing" textLength="344" x="2363" y="412.9651">apply(dt : Double, v : StateVector4) : StateVector4</text></g><!--class IVDF--><g id="elem_IVDF"><rect codeLine="40" fill="#F1F1F1" height="80.5938" id="IVDF" rx="2.5" ry="2.5" style="stroke:#181818;stroke-width:0.5;" width="563" x="1745.5" y="347.82"/><ellipse cx="1877.75" cy="363.82" fill="#ADD1B2" rx="11" ry="11" style="stroke:#181818;stroke-width:1.0;"/><path d="M1880.7188,369.4606 Q1880.1406,369.7575 1879.5,369.8981 Q1878.8594,370.0544 1878.1563,370.0544 Q1875.6563,370.0544 1874.3281,368.4138 Q1873.0156,366.7575 1873.0156,363.6325 Q1873.0156,360.5075 1874.3281,358.8513 Q1875.6563,357.195 1878.1563,357.195 Q1878.8594,357.195 1879.5,357.3513 Q1880.1563,357.5075 1880.7188,357.8044 L1880.7188,360.5231 Q1880.0938,359.945 1879.5,359.6794 Q1878.9063,359.3981 1878.2813,359.3981 Q1876.9375,359.3981 1876.25,360.4763 Q1875.5625,361.5388 1875.5625,363.6325 Q1875.5625,365.7263 1876.25,366.8044 Q1876.9375,367.8669 1878.2813,367.8669 Q1878.9063,367.8669 1879.5,367.6013 Q1880.0938,367.32 1880.7188,366.7419 L1880.7188,369.4606 Z " fill="#000000"/><text fill="#000000" font-family="sans-serif" font-size="14" lengthAdjust="spacing" textLength="290" x="1898.25" y="368.6667">InstantaneousVectorDifferentiationFactory</text><line style="stroke:#181818;stroke-width:0.5;" x1="1746.5" x2="2307.5" y1="379.82" y2="379.82"/><line style="stroke:#181818;stroke-width:0.5;" x1="1746.5" x2="2307.5" y1="387.82" y2="387.82"/><ellipse cx="1756.5" cy="401.4684" fill="#84BE84" rx="3" ry="3" style="stroke:#038048;stroke-width:1.0;"/><text fill="#000000" font-family="sans-serif" font-size="14" lengthAdjust="spacing" textLength="521" x="1765.5" y="404.8151">instantaneousVectorDifferentiation4() : InstantaneousVectorDifferentiation4</text><ellipse cx="1756.5" cy="417.7653" fill="#84BE84" rx="3" ry="3" style="stroke:#038048;stroke-width:1.0;"/><text fill="#000000" font-family="sans-serif" font-size="14" lengthAdjust="spacing" textLength="537" x="1765.5" y="421.112">altInstantaneousVectorDifferentiation4() : InstantaneousVectorDifferentiation4</text></g><!--class VDF--><g id="elem_VDF"><rect codeLine="45" fill="#F1F1F1" height="80.5938" id="VDF" rx="2.5" ry="2.5" style="stroke:#181818;stroke-width:0.5;" width="439" x="2256.5" y="85"/><ellipse cx="2376.25" cy="101" fill="#ADD1B2" rx="11" ry="11" style="stroke:#181818;stroke-width:1.0;"/><path d="M2379.2188,106.6406 Q2378.6406,106.9375 2378,107.0781 Q2377.3594,107.2344 2376.6563,107.2344 Q2374.1563,107.2344 2372.8281,105.5938 Q2371.5156,103.9375 2371.5156,100.8125 Q2371.5156,97.6875 2372.8281,96.0313 Q2374.1563,94.375 2376.6563,94.375 Q2377.3594,94.375 2378,94.5313 Q2378.6563,94.6875 2379.2188,94.9844 L2379.2188,97.7031 Q2378.5938,97.125 2378,96.8594 Q2377.4063,96.5781 2376.7813,96.5781 Q2375.4375,96.5781 2374.75,97.6563 Q2374.0625,98.7188 2374.0625,100.8125 Q2374.0625,102.9063 2374.75,103.9844 Q2375.4375,105.0469 2376.7813,105.0469 Q2377.4063,105.0469 2378,104.7813 Q2378.5938,104.5 2379.2188,103.9219 L2379.2188,106.6406 Z " fill="#000000"/><text fill="#000000" font-family="sans-serif" font-size="14" lengthAdjust="spacing" textLength="191" x="2396.75" y="105.8467">VectorDifferentiationFactory</text><line style="stroke:#181818;stroke-width:0.5;" x1="2257.5" x2="2694.5" y1="117" y2="117"/><line style="stroke:#181818;stroke-width:0.5;" x1="2257.5" x2="2694.5" y1="125" y2="125"/><ellipse cx="2267.5" cy="138.6484" fill="#84BE84" rx="3" ry="3" style="stroke:#038048;stroke-width:1.0;"/><text fill="#000000" font-family="sans-serif" font-size="14" lengthAdjust="spacing" textLength="413" x="2276.5" y="141.9951">normalSpeedvectorDifferentiation4() : VectorDifferentiation4</text><ellipse cx="2267.5" cy="154.9453" fill="#84BE84" rx="3" ry="3" style="stroke:#038048;stroke-width:1.0;"/><text fill="#000000" font-family="sans-serif" font-size="14" lengthAdjust="spacing" textLength="391" x="2276.5" y="158.292">lowSpeedVectorDifferentiation4() : VectorDifferentiation4</text></g><!--class DIF--><g id="elem_DIF"><rect codeLine="57" fill="#F1F1F1" height="64.2969" id="DIF" rx="2.5" ry="2.5" style="stroke:#181818;stroke-width:0.5;" width="659" x="2198.5" y="578.05"/><ellipse cx="2479.25" cy="594.05" fill="#ADD1B2" rx="11" ry="11" style="stroke:#181818;stroke-width:1.0;"/><path d="M2482.2188,599.6906 Q2481.6406,599.9875 2481,600.1281 Q2480.3594,600.2844 2479.6563,600.2844 Q2477.1563,600.2844 2475.8281,598.6438 Q2474.5156,596.9875 2474.5156,593.8625 Q2474.5156,590.7375 2475.8281,589.0813 Q2477.1563,587.425 2479.6563,587.425 Q2480.3594,587.425 2481,587.5813 Q2481.6563,587.7375 2482.2188,588.0344 L2482.2188,590.7531 Q2481.5938,590.175 2481,589.9094 Q2480.4063,589.6281 2479.7813,589.6281 Q2478.4375,589.6281 2477.75,590.7063 Q2477.0625,591.7688 2477.0625,593.8625 Q2477.0625,595.9563 2477.75,597.0344 Q2478.4375,598.0969 2479.7813,598.0969 Q2480.4063,598.0969 2481,597.8313 Q2481.5938,597.55 2482.2188,596.9719 L2482.2188,599.6906 Z " fill="#000000"/><text fill="#000000" font-family="sans-serif" font-size="14" lengthAdjust="spacing" textLength="89" x="2499.75" y="598.8967">Differentiator</text><line style="stroke:#181818;stroke-width:0.5;" x1="2199.5" x2="2856.5" y1="610.05" y2="610.05"/><line style="stroke:#181818;stroke-width:0.5;" x1="2199.5" x2="2856.5" y1="618.05" y2="618.05"/><ellipse cx="2209.5" cy="631.6984" fill="#84BE84" rx="3" ry="3" style="stroke:#038048;stroke-width:1.0;"/><text fill="#000000" font-family="sans-serif" font-size="14" lengthAdjust="spacing" textLength="633" x="2218.5" y="635.0451">differentiate(h : double, sv : StateVector4, dif : BiFunction&lt;Double, Double&gt;) : StateVector4</text></g><!--class TPCD--><g id="elem_TPCD"><rect codeLine="61" fill="#F1F1F1" height="64.2969" id="TPCD" rx="2.5" ry="2.5" style="stroke:#181818;stroke-width:0.5;" width="659" x="2198.5" y="718.64"/><ellipse cx="2417.75" cy="734.64" fill="#ADD1B2" rx="11" ry="11" style="stroke:#181818;stroke-width:1.0;"/><path d="M2420.7188,740.2806 Q2420.1406,740.5775 2419.5,740.7181 Q2418.8594,740.8744 2418.1563,740.8744 Q2415.6563,740.8744 2414.3281,739.2338 Q2413.0156,737.5775 2413.0156,734.4525 Q2413.0156,731.3275 2414.3281,729.6713 Q2415.6563,728.015 2418.1563,728.015 Q2418.8594,728.015 2419.5,728.1713 Q2420.1563,728.3275 2420.7188,728.6244 L2420.7188,731.3431 Q2420.0938,730.765 2419.5,730.4994 Q2418.9063,730.2181 2418.2813,730.2181 Q2416.9375,730.2181 2416.25,731.2963 Q2415.5625,732.3588 2415.5625,734.4525 Q2415.5625,736.5463 2416.25,737.6244 Q2416.9375,738.6869 2418.2813,738.6869 Q2418.9063,738.6869 2419.5,738.4213 Q2420.0938,738.14 2420.7188,737.5619 L2420.7188,740.2806 Z " fill="#000000"/><text fill="#000000" font-family="sans-serif" font-size="14" lengthAdjust="spacing" textLength="212" x="2438.25" y="739.4867">ThreePointCenteredDifference</text><line style="stroke:#181818;stroke-width:0.5;" x1="2199.5" x2="2856.5" y1="750.64" y2="750.64"/><line style="stroke:#181818;stroke-width:0.5;" x1="2199.5" x2="2856.5" y1="758.64" y2="758.64"/><ellipse cx="2209.5" cy="772.2884" fill="#84BE84" rx="3" ry="3" style="stroke:#038048;stroke-width:1.0;"/><text fill="#000000" font-family="sans-serif" font-size="14" lengthAdjust="spacing" textLength="633" x="2218.5" y="775.6351">differentiate(h : double, sv : StateVector4, dif : BiFunction&lt;Double, Double&gt;) : StateVector4</text></g><!--class FPCD--><g id="elem_FPCD"><rect codeLine="65" fill="#F1F1F1" height="64.2969" id="FPCD" rx="2.5" ry="2.5" style="stroke:#181818;stroke-width:0.5;" width="659" x="2892.5" y="718.64"/><ellipse cx="3118.75" cy="734.64" fill="#ADD1B2" rx="11" ry="11" style="stroke:#181818;stroke-width:1.0;"/><path d="M3121.7188,740.2806 Q3121.1406,740.5775 3120.5,740.7181 Q3119.8594,740.8744 3119.1563,740.8744 Q3116.6563,740.8744 3115.3281,739.2338 Q3114.0156,737.5775 3114.0156,734.4525 Q3114.0156,731.3275 3115.3281,729.6713 Q3116.6563,728.015 3119.1563,728.015 Q3119.8594,728.015 3120.5,728.1713 Q3121.1563,728.3275 3121.7188,728.6244 L3121.7188,731.3431 Q3121.0938,730.765 3120.5,730.4994 Q3119.9063,730.2181 3119.2813,730.2181 Q3117.9375,730.2181 3117.25,731.2963 Q3116.5625,732.3588 3116.5625,734.4525 Q3116.5625,736.5463 3117.25,737.6244 Q3117.9375,738.6869 3119.2813,738.6869 Q3119.9063,738.6869 3120.5,738.4213 Q3121.0938,738.14 3121.7188,737.5619 L3121.7188,740.2806 Z " fill="#000000"/><text fill="#000000" font-family="sans-serif" font-size="14" lengthAdjust="spacing" textLength="198" x="3139.25" y="739.4867">FivePointCenteredDifference</text><line style="stroke:#181818;stroke-width:0.5;" x1="2893.5" x2="3550.5" y1="750.64" y2="750.64"/><line style="stroke:#181818;stroke-width:0.5;" x1="2893.5" x2="3550.5" y1="758.64" y2="758.64"/><ellipse cx="2903.5" cy="772.2884" fill="#84BE84" rx="3" ry="3" style="stroke:#038048;stroke-width:1.0;"/><text fill="#000000" font-family="sans-serif" font-size="14" lengthAdjust="spacing" textLength="633" x="2912.5" y="775.6351">differentiate(h : double, sv : StateVector4, dif : BiFunction&lt;Double, Double&gt;) : StateVector4</text></g><!--class ODES--><g id="elem_ODES"><rect codeLine="77" fill="#F1F1F1" height="80.5938" id="ODES" rx="2.5" ry="2.5" style="stroke:#181818;stroke-width:0.5;" width="665" x="796.5" y="569.9"/><ellipse cx="1069.25" cy="585.9" fill="#ADD1B2" rx="11" ry="11" style="stroke:#181818;stroke-width:1.0;"/><path d="M1072.2188,591.5406 Q1071.6406,591.8375 1071,591.9781 Q1070.3594,592.1344 1069.6563,592.1344 Q1067.1563,592.1344 1065.8281,590.4938 Q1064.5156,588.8375 1064.5156,585.7125 Q1064.5156,582.5875 1065.8281,580.9313 Q1067.1563,579.275 1069.6563,579.275 Q1070.3594,579.275 1071,579.4313 Q1071.6563,579.5875 1072.2188,579.8844 L1072.2188,582.6031 Q1071.5938,582.025 1071,581.7594 Q1070.4063,581.4781 1069.7813,581.4781 Q1068.4375,581.4781 1067.75,582.5563 Q1067.0625,583.6188 1067.0625,585.7125 Q1067.0625,587.8063 1067.75,588.8844 Q1068.4375,589.9469 1069.7813,589.9469 Q1070.4063,589.9469 1071,589.6813 Q1071.5938,589.4 1072.2188,588.8219 L1072.2188,591.5406 Z " fill="#000000"/><text fill="#000000" font-family="sans-serif" font-size="14" lengthAdjust="spacing" textLength="73" x="1089.75" y="590.7467">ODESolver</text><rect fill="#FFFFFF" height="15.9688" style="stroke:#181818;stroke-width:1.0;stroke-dasharray:2.0,2.0;" width="36" x="1428.5" y="566.9"/><text fill="#000000" font-family="sans-serif" font-size="12" font-style="italic" lengthAdjust="spacing" textLength="34" x="1429.5" y="579.0387">State</text><line style="stroke:#181818;stroke-width:0.5;" x1="797.5" x2="1460.5" y1="601.9" y2="601.9"/><line style="stroke:#181818;stroke-width:0.5;" x1="797.5" x2="1460.5" y1="609.9" y2="609.9"/><ellipse cx="807.5" cy="623.5484" fill="#84BE84" rx="3" ry="3" style="stroke:#038048;stroke-width:1.0;"/><text fill="#000000" font-family="sans-serif" font-size="14" lengthAdjust="spacing" textLength="639" x="816.5" y="626.8951">solve(h : double, endTime : double, sv : State, dif : BiFunction&lt;Double, State, State&gt;) : State</text><ellipse cx="807.5" cy="639.8453" fill="#84BE84" rx="3" ry="3" style="stroke:#038048;stroke-width:1.0;"/><text fill="#000000" font-family="sans-serif" font-size="14" lengthAdjust="spacing" textLength="535" x="816.5" y="643.192">nextStep(h : double, sv : State, dif : BiFunction&lt;Double, State, State&gt;) : State</text></g><!--class RK4--><g id="elem_RK4"><rect codeLine="82" fill="#F1F1F1" height="80.5938" id="RK4" rx="2.5" ry="2.5" style="stroke:#181818;stroke-width:0.5;" width="881" x="345.5" y="710.5"/><ellipse cx="767.75" cy="726.5" fill="#ADD1B2" rx="11" ry="11" style="stroke:#181818;stroke-width:1.0;"/><path d="M770.7188,732.1406 Q770.1406,732.4375 769.5,732.5781 Q768.8594,732.7344 768.1563,732.7344 Q765.6563,732.7344 764.3281,731.0938 Q763.0156,729.4375 763.0156,726.3125 Q763.0156,723.1875 764.3281,721.5313 Q765.6563,719.875 768.1563,719.875 Q768.8594,719.875 769.5,720.0313 Q770.1563,720.1875 770.7188,720.4844 L770.7188,723.2031 Q770.0938,722.625 769.5,722.3594 Q768.9063,722.0781 768.2813,722.0781 Q766.9375,722.0781 766.25,723.1563 Q765.5625,724.2188 765.5625,726.3125 Q765.5625,728.4063 766.25,729.4844 Q766.9375,730.5469 768.2813,730.5469 Q768.9063,730.5469 769.5,730.2813 Q770.0938,730 770.7188,729.4219 L770.7188,732.1406 Z " fill="#000000"/><text fill="#000000" font-family="sans-serif" font-size="14" lengthAdjust="spacing" textLength="28" x="788.25" y="731.3467">RK4</text><line style="stroke:#181818;stroke-width:0.5;" x1="346.5" x2="1225.5" y1="742.5" y2="742.5"/><line style="stroke:#181818;stroke-width:0.5;" x1="346.5" x2="1225.5" y1="750.5" y2="750.5"/><ellipse cx="356.5" cy="764.1484" fill="#84BE84" rx="3" ry="3" style="stroke:#038048;stroke-width:1.0;"/><text fill="#000000" font-family="sans-serif" font-size="14" lengthAdjust="spacing" textLength="855" x="365.5" y="767.4951">solve(h : double, endTime : double, sv : StateVector4, dif : BiFunction&lt;Double, StateVector4, StateVector4&gt;) : StateVector4</text><ellipse cx="356.5" cy="780.4453" fill="#84BE84" rx="3" ry="3" style="stroke:#038048;stroke-width:1.0;"/><text fill="#000000" font-family="sans-serif" font-size="14" lengthAdjust="spacing" textLength="751" x="365.5" y="783.792">nextStep(h : double, sv : StateVector4, dif : BiFunction&lt;Double, StateVector4, StateVector4&gt;) : StateVector4</text></g><!--class RK2--><g id="elem_RK2"><rect codeLine="87" fill="#F1F1F1" height="80.5938" id="RK2" rx="2.5" ry="2.5" style="stroke:#181818;stroke-width:0.5;" width="881" x="1261.5" y="710.5"/><ellipse cx="1683.75" cy="726.5" fill="#ADD1B2" rx="11" ry="11" style="stroke:#181818;stroke-width:1.0;"/><path d="M1686.7188,732.1406 Q1686.1406,732.4375 1685.5,732.5781 Q1684.8594,732.7344 1684.1563,732.7344 Q1681.6563,732.7344 1680.3281,731.0938 Q1679.0156,729.4375 1679.0156,726.3125 Q1679.0156,723.1875 1680.3281,721.5313 Q1681.6563,719.875 1684.1563,719.875 Q1684.8594,719.875 1685.5,720.0313 Q1686.1563,720.1875 1686.7188,720.4844 L1686.7188,723.2031 Q1686.0938,722.625 1685.5,722.3594 Q1684.9063,722.0781 1684.2813,722.0781 Q1682.9375,722.0781 1682.25,723.1563 Q1681.5625,724.2188 1681.5625,726.3125 Q1681.5625,728.4063 1682.25,729.4844 Q1682.9375,730.5469 1684.2813,730.5469 Q1684.9063,730.5469 1685.5,730.2813 Q1686.0938,730 1686.7188,729.4219 L1686.7188,732.1406 Z " fill="#000000"/><text fill="#000000" font-family="sans-serif" font-size="14" lengthAdjust="spacing" textLength="28" x="1704.25" y="731.3467">RK2</text><line style="stroke:#181818;stroke-width:0.5;" x1="1262.5" x2="2141.5" y1="742.5" y2="742.5"/><line style="stroke:#181818;stroke-width:0.5;" x1="1262.5" x2="2141.5" y1="750.5" y2="750.5"/><ellipse cx="1272.5" cy="764.1484" fill="#84BE84" rx="3" ry="3" style="stroke:#038048;stroke-width:1.0;"/><text fill="#000000" font-family="sans-serif" font-size="14" lengthAdjust="spacing" textLength="855" x="1281.5" y="767.4951">solve(h : double, endTime : double, sv : StateVector4, dif : BiFunction&lt;Double, StateVector4, StateVector4&gt;) : StateVector4</text><ellipse cx="1272.5" cy="780.4453" fill="#84BE84" rx="3" ry="3" style="stroke:#038048;stroke-width:1.0;"/><text fill="#000000" font-family="sans-serif" font-size="14" lengthAdjust="spacing" textLength="751" x="1281.5" y="783.792">nextStep(h : double, sv : StateVector4, dif : BiFunction&lt;Double, StateVector4, StateVector4&gt;) : StateVector4</text></g><!--entity GE--><g id="elem_GE"><rect fill="#F1F1F1" height="36.2969" rx="2.5" ry="2.5" style="stroke:#181818;stroke-width:0.5;" width="114" x="7" y="107.15"/><text fill="#000000" font-family="sans-serif" font-size="14" lengthAdjust="spacing" textLength="94" x="17" y="130.1451">game_engine</text></g><!--entity GR--><g id="elem_GR"><rect fill="#F1F1F1" height="36.2969" rx="2.5" ry="2.5" style="stroke:#181818;stroke-width:0.5;" width="134" x="156" y="107.15"/><text fill="#000000" font-family="sans-serif" font-size="14" lengthAdjust="spacing" textLength="114" x="166" y="130.1451">graphics_engine</text></g><!--reverse link IVD4 to IVDF--><g id="link_IVD4_IVDF"><path codeLine="50" d="M2041.5597,163.7473 C2038.4597,211.3073 2032.97,295.46 2029.59,347.45 " fill="none" id="IVD4-backto-IVDF" style="stroke:#181818;stroke-width:1.0;"/><polygon fill="#181818" points="2041.95,157.76,2037.3731,166.4808,2041.6248,162.7494,2045.3561,167.0011,2041.95,157.76" style="stroke:#181818;stroke-width:1.0;"/></g><!--link VDF to VD4--><g id="link_VDF_VD4"><path codeLine="51" d="M2483.9,165.91 C2494.27,217.93 2511.0969,302.3158 2520.5769,349.8658 " fill="none" id="VDF-to-VD4" style="stroke:#181818;stroke-width:1.0;"/><polygon fill="#181818" points="2521.75,355.75,2523.9131,346.1416,2520.7724,350.8465,2516.0675,347.7058,2521.75,355.75" style="stroke:#181818;stroke-width:1.0;"/></g><!--reverse link IVD4 to VDF--><g id="link_IVD4_VDF"><path codeLine="52" d="M2192.59,125.3 C2215.77,125.3 2232.94,125.3 2256.12,125.3 " fill="none" id="IVD4-backto-VDF" style="stroke:#181818;stroke-width:1.0;"/><polygon fill="#181818" points="2186.59,125.3,2195.59,129.3,2191.59,125.3,2195.59,121.3,2186.59,125.3" style="stroke:#181818;stroke-width:1.0;"/></g><!--reverse link DIF to FPCD--><g id="link_DIF_FPCD"><path codeLine="69" d="M2704.0014,646.3453 C2817.0114,668.9153 2950.74,695.62 3063.73,718.19 " fill="none" id="DIF-backto-FPCD" style="stroke:#181818;stroke-width:1.0;"/><polygon fill="none" points="2686.35,642.82,2702.8263,652.2291,2705.1765,640.4615,2686.35,642.82" style="stroke:#181818;stroke-width:1.0;"/></g><!--reverse link DIF to TPCD--><g id="link_DIF_TPCD"><path codeLine="70" d="M2528,660.65 C2528,683.33 2528,695.82 2528,718.47 " fill="none" id="DIF-backto-TPCD" style="stroke:#181818;stroke-width:1.0;"/><polygon fill="none" points="2528,642.65,2522,660.65,2534,660.65,2528,642.65" style="stroke:#181818;stroke-width:1.0;"/></g><!--link PE to DIF--><g id="link_PE_DIF"><path codeLine="72" d="M1368.49,446.32 C1478.05,470.14 1609.93,495.54 1730,509.9 C1919.03,532.51 1969.22,502.36 2158,526.9 C2243.81,538.06 2333.2708,558.0084 2405.6508,576.1884 " fill="none" id="PE-to-DIF" style="stroke:#181818;stroke-width:1.0;"/><polygon fill="#181818" points="2411.47,577.65,2403.7156,571.578,2406.6206,576.432,2401.7667,579.337,2411.47,577.65" style="stroke:#181818;stroke-width:1.0;"/></g><!--reverse link VD4 to DIF--><g id="link_VD4_DIF"><path codeLine="73" d="M2528,426.65 C2528,468.49 2528,535.92 2528,577.73 " fill="none" id="VD4-backto-DIF" style="stroke:#181818;stroke-width:1.0;"/><polygon fill="#181818" points="2528,420.65,2524,429.65,2528,425.65,2532,429.65,2528,420.65" style="stroke:#181818;stroke-width:1.0;"/></g><!--reverse link ODES to RK4--><g id="link_ODES_RK4"><path codeLine="92" d="M1014.0211,657.6539 C968.0911,676.2139 930.23,691.51 884.3,710.07 " fill="none" id="ODES-backto-RK4" style="stroke:#181818;stroke-width:1.0;"/><polygon fill="none" points="1030.71,650.91,1011.7731,652.0909,1016.269,663.2169,1030.71,650.91" style="stroke:#181818;stroke-width:1.0;"/></g><!--reverse link ODES to RK2--><g id="link_ODES_RK2"><path codeLine="93" d="M1310.6953,655.1424 C1387.4153,673.7024 1461.05,691.51 1537.78,710.07 " fill="none" id="ODES-backto-RK2" style="stroke:#181818;stroke-width:1.0;"/><polygon fill="none" points="1293.2,650.91,1309.2845,660.9742,1312.1061,649.3107,1293.2,650.91" style="stroke:#181818;stroke-width:1.0;"/></g><!--link PE to ODES--><g id="link_PE_ODES"><path codeLine="95" d="M1129,510.11 C1129,531.68 1129,546.69 1129,563.77 " fill="none" id="PE-to-ODES" style="stroke:#181818;stroke-width:1.0;"/><polygon fill="#181818" points="1129,569.77,1133,560.77,1129,564.77,1125,560.77,1129,569.77" style="stroke:#181818;stroke-width:1.0;"/></g><!--link GE to PE--><g id="link_GE_PE"><path codeLine="102" d="M75.24,143.75 C88.23,162.4 111.41,191.3 139,206.34 C265.4,275.27 633.4241,329.6543 883.8141,360.1643 " fill="none" id="GE-to-PE" style="stroke:#181818;stroke-width:1.0;"/><polygon fill="#181818" points="889.77,360.89,881.3199,355.8308,884.8067,360.2852,880.3523,363.772,889.77,360.89" style="stroke:#181818;stroke-width:1.0;"/><text fill="#000000" font-family="sans-serif" font-size="13" lengthAdjust="spacing" textLength="117" x="764.8615" y="357.0361">FrameRateIterator</text></g><!--link GE to GR--><g id="link_GE_GR"><path codeLine="107" d="M121.45,125.3 C132.82,125.3 138.19,125.3 149.57,125.3 " fill="none" id="GE-to-GR" style="stroke:#181818;stroke-width:1.0;"/><polygon fill="#181818" points="155.57,125.3,146.57,121.3,150.57,125.3,146.57,129.3,155.57,125.3" style="stroke:#181818;stroke-width:1.0;"/><text fill="#000000" font-family="sans-serif" font-size="13" lengthAdjust="spacing" textLength="117" x="30.9177" y="100.1434">FrameRateIterator</text></g><!--SRC=[xLPDR-8m4BttLrWvKRLSgfvM5TAsG8LMsYA2kAxSP22HWXtPJbgqs_- -Opk0dI_OxbRgOH5Io7ZcUURv3MC1aQ9iam49ycGdqqY-1eHACYS_Bov8zOaoAYK9GaKLh320YrlZ5AvkqOqudwjNyeN4l7ZEmBVlEknbLq3P5U5cCJX6NvETyxjq5noeIn-Bnl50bhZgWbxMtlsGRP6fDCzs0ndHZ8eZSbVKMuF7kILwmZOf0ylsfCwZTA1wy-4nX3mhGMSIF8qdzkNE3HW5VaYShjSWWAcKuZB6ZJs3xvoxoJR9kYOHBuG4D3_oRFrWNgv9qiLuAh-g1KWrq7mzSvu1PPx7i60nY1VSGNJx2A1H0l6IYWtqGF52FQtlEIBAJgSh1gygL90F-izTQbvF-AIOj6RGk4q5tS82NMULjNx0aCzS_z0nkEAnyX77FdMFB-NC26ZylQLVPmnLnF0Bl90suR4VQzjujXet-fZcMkDdjqPJv3txuNQjkyLAQt7VjE_V-dJTKwgDkttrqthrwMdcp9cTmN2jq4pDFW3xJFhTibkgPbniQHRc077PdTSvPMRynS2itWtZL6GEQ5Zamv5Hwi5kp6Xis39OAzVvhRU5k92sXHOjBUJ_Crg_MOCu5mu6YJDwMlulqHbjz-cqO96k-MwlUFiS_O7Gbua0cFEKgGVS73E8z_b6Tguivm_ZpvBiD2rxSvr-XbnD4bfhlqRwe0_sPSr-MC39hJNe-cg1MBbs2n2djXaebVOceLDvnLTjbe-CepOshWfcChda08kNwHPQwUhXgLgtsntOwfYMoJz6RmfcySsE2tp-NScd5UAxUNUd_eb_WewFsRcDgfkAgfl_L7LGfMLKTR3k8iT-uzdhhNrmVhj0DAU7DtY_-m77I_oZliIZ2pw7CNzXmr7Gk0C6YEg329edUB_sW1OLq8BSsM56sf0U9xy1]--></g></svg>