<svg xmlns="http://www.w3.org/2000/svg" xmlns:xlink="http://www.w3.org/1999/xlink" contentStyleType="text/css" height="739px" preserveAspectRatio="none" style="width:3299px;height:739px;background:#FFFFFF;" version="1.1" viewBox="0 0 3299 739" width="3299px" zoomAndPan="magnify"><defs/><g><!--cluster P--><g id="cluster_P"><rect fill="none" height="726.3" rx="2.5" ry="2.5" style="stroke:#181818;stroke-width:1.0;" width="3286" x="7" y="7"/><text fill="#000000" font-family="sans-serif" font-size="14" font-weight="bold" lengthAdjust="spacing" textLength="69" x="1615.5" y="21.9951">physicsx</text></g><!--cluster DN--><g id="cluster_DN"><rect fill="none" height="345.52" rx="2.5" ry="2.5" style="stroke:#181818;stroke-width:1.0;" width="999" x="273" y="50"/><text fill="#000000" font-family="sans-serif" font-size="14" font-weight="bold" lengthAdjust="spacing" textLength="112" x="716.5" y="64.9951">differentiation</text></g><!--cluster DR--><g id="cluster_DR"><rect fill="none" height="255.89" rx="2.5" ry="2.5" style="stroke:#181818;stroke-width:1.0;" width="1386" x="31" y="445.26"/><text fill="#000000" font-family="sans-serif" font-size="14" font-weight="bold" lengthAdjust="spacing" textLength="114" x="667" y="460.2551">differentiators</text></g><!--cluster ES--><g id="cluster_ES"><rect fill="none" height="272.19" rx="2.5" ry="2.5" style="stroke:#181818;stroke-width:1.0;" width="1828" x="1441" y="437.11"/><text fill="#000000" font-family="sans-serif" font-size="14" font-weight="bold" lengthAdjust="spacing" textLength="88" x="2311" y="452.1051">odesolvers</text></g><!--class SV4--><g id="elem_SV4"><rect codeLine="3" fill="#F1F1F1" height="162.0781" id="SV4" rx="2.5" ry="2.5" style="stroke:#181818;stroke-width:0.5;" width="436" x="2064" y="44.25"/><ellipse cx="2232.75" cy="60.25" fill="#ADD1B2" rx="11" ry="11" style="stroke:#181818;stroke-width:1.0;"/><path d="M2235.7188,65.8906 Q2235.1406,66.1875 2234.5,66.3281 Q2233.8594,66.4844 2233.1563,66.4844 Q2230.6563,66.4844 2229.3281,64.8438 Q2228.0156,63.1875 2228.0156,60.0625 Q2228.0156,56.9375 2229.3281,55.2813 Q2230.6563,53.625 2233.1563,53.625 Q2233.8594,53.625 2234.5,53.7813 Q2235.1563,53.9375 2235.7188,54.2344 L2235.7188,56.9531 Q2235.0938,56.375 2234.5,56.1094 Q2233.9063,55.8281 2233.2813,55.8281 Q2231.9375,55.8281 2231.25,56.9063 Q2230.5625,57.9688 2230.5625,60.0625 Q2230.5625,62.1563 2231.25,63.2344 Q2231.9375,64.2969 2233.2813,64.2969 Q2233.9063,64.2969 2234.5,64.0313 Q2235.0938,63.75 2235.7188,63.1719 L2235.7188,65.8906 Z " fill="#000000"/><text fill="#000000" font-family="sans-serif" font-size="14" lengthAdjust="spacing" textLength="90" x="2253.25" y="65.0967">StateVector4</text><line style="stroke:#181818;stroke-width:0.5;" x1="2065" x2="2499" y1="76.25" y2="76.25"/><ellipse cx="2075" cy="89.8984" fill="none" rx="3" ry="3" style="stroke:#038048;stroke-width:1.0;"/><text fill="#000000" font-family="sans-serif" font-size="14" lengthAdjust="spacing" textLength="68" x="2084" y="93.2451">x : double</text><ellipse cx="2075" cy="106.1953" fill="none" rx="3" ry="3" style="stroke:#038048;stroke-width:1.0;"/><text fill="#000000" font-family="sans-serif" font-size="14" lengthAdjust="spacing" textLength="68" x="2084" y="109.542">y : double</text><ellipse cx="2075" cy="122.4922" fill="none" rx="3" ry="3" style="stroke:#038048;stroke-width:1.0;"/><text fill="#000000" font-family="sans-serif" font-size="14" lengthAdjust="spacing" textLength="75" x="2084" y="125.8389">vx : double</text><ellipse cx="2075" cy="138.7891" fill="none" rx="3" ry="3" style="stroke:#038048;stroke-width:1.0;"/><text fill="#000000" font-family="sans-serif" font-size="14" lengthAdjust="spacing" textLength="75" x="2084" y="142.1357">vy : double</text><line style="stroke:#181818;stroke-width:0.5;" x1="2065" x2="2499" y1="149.4375" y2="149.4375"/><ellipse cx="2075" cy="163.0859" fill="#84BE84" rx="3" ry="3" style="stroke:#038048;stroke-width:1.0;"/><text fill="#000000" font-family="sans-serif" font-size="14" lengthAdjust="spacing" textLength="410" x="2084" y="166.4326">StateVector4(x : double, y : double, vx : double, vy : double)</text><ellipse cx="2075" cy="179.3828" fill="#84BE84" rx="3" ry="3" style="stroke:#038048;stroke-width:1.0;"/><text fill="#000000" font-family="sans-serif" font-size="14" lengthAdjust="spacing" textLength="257" x="2084" y="182.7295">add(sv : StateVector4) : StateVector4</text><ellipse cx="2075" cy="195.6797" fill="#84BE84" rx="3" ry="3" style="stroke:#038048;stroke-width:1.0;"/><text fill="#000000" font-family="sans-serif" font-size="14" lengthAdjust="spacing" textLength="266" x="2084" y="199.0264">multiply(scalar : double) : StateVector4</text></g><!--class PE--><g id="elem_PE"><rect codeLine="13" fill="#F1F1F1" height="145.7813" id="PE" rx="2.5" ry="2.5" style="stroke:#181818;stroke-width:0.5;" width="514" x="1465" y="266.33"/><ellipse cx="1667.75" cy="282.33" fill="#ADD1B2" rx="11" ry="11" style="stroke:#181818;stroke-width:1.0;"/><path d="M1670.7188,287.9706 Q1670.1406,288.2675 1669.5,288.4081 Q1668.8594,288.5644 1668.1563,288.5644 Q1665.6563,288.5644 1664.3281,286.9237 Q1663.0156,285.2675 1663.0156,282.1425 Q1663.0156,279.0175 1664.3281,277.3612 Q1665.6563,275.705 1668.1563,275.705 Q1668.8594,275.705 1669.5,275.8612 Q1670.1563,276.0175 1670.7188,276.3144 L1670.7188,279.0331 Q1670.0938,278.455 1669.5,278.1894 Q1668.9063,277.9081 1668.2813,277.9081 Q1666.9375,277.9081 1666.25,278.9862 Q1665.5625,280.0487 1665.5625,282.1425 Q1665.5625,284.2362 1666.25,285.3144 Q1666.9375,286.3769 1668.2813,286.3769 Q1668.9063,286.3769 1669.5,286.1112 Q1670.0938,285.83 1670.7188,285.2519 L1670.7188,287.9706 Z " fill="#000000"/><text fill="#000000" font-family="sans-serif" font-size="14" lengthAdjust="spacing" textLength="100" x="1688.25" y="287.1767">PhysicsEngine</text><line style="stroke:#181818;stroke-width:0.5;" x1="1466" x2="1978" y1="298.33" y2="298.33"/><ellipse cx="1476" cy="311.9784" fill="none" rx="3" ry="3" style="stroke:#038048;stroke-width:1.0;"/><text fill="#000000" font-family="sans-serif" font-size="14" lengthAdjust="spacing" textLength="192" x="1485" y="315.3251">stateVector4 : StateVector4</text><ellipse cx="1476" cy="328.2753" fill="none" rx="3" ry="3" style="stroke:#038048;stroke-width:1.0;"/><text fill="#000000" font-family="sans-serif" font-size="14" lengthAdjust="spacing" textLength="279" x="1485" y="331.622">odeSolver : "ODESolver&lt;StateVector4&gt;"</text><ellipse cx="1476" cy="344.5722" fill="none" rx="3" ry="3" style="stroke:#038048;stroke-width:1.0;"/><text fill="#000000" font-family="sans-serif" font-size="14" lengthAdjust="spacing" textLength="189" x="1485" y="347.9189">differentiator : Differentiator</text><line style="stroke:#181818;stroke-width:0.5;" x1="1466" x2="1978" y1="355.2206" y2="355.2206"/><ellipse cx="1476" cy="368.8691" fill="#84BE84" rx="3" ry="3" style="stroke:#038048;stroke-width:1.0;"/><text fill="#000000" font-family="sans-serif" font-size="14" lengthAdjust="spacing" textLength="488" x="1485" y="372.2157">physicsEngine(sv : StateVector4, odeSolver : ODES, differentiator : DIF)</text><ellipse cx="1476" cy="385.1659" fill="#84BE84" rx="3" ry="3" style="stroke:#038048;stroke-width:1.0;"/><text fill="#000000" font-family="sans-serif" font-size="14" lengthAdjust="spacing" textLength="175" x="1485" y="388.5126">nextStep() : StateVector4</text><ellipse cx="1476" cy="401.4628" fill="#84BE84" rx="3" ry="3" style="stroke:#038048;stroke-width:1.0;"/><text fill="#000000" font-family="sans-serif" font-size="14" lengthAdjust="spacing" textLength="149" x="1485" y="404.8095">solve() : StateVector4</text></g><!--class IVD4--><g id="elem_IVD4"><rect codeLine="24" fill="#F1F1F1" height="64.2969" id="IVD4" rx="2.5" ry="2.5" style="stroke:#181818;stroke-width:0.5;" width="285" x="445.5" y="93.14"/><ellipse cx="462.3" cy="109.14" fill="#ADD1B2" rx="11" ry="11" style="stroke:#181818;stroke-width:1.0;"/><path d="M465.2688,114.7806 Q464.6906,115.0775 464.05,115.2181 Q463.4094,115.3744 462.7063,115.3744 Q460.2063,115.3744 458.8781,113.7337 Q457.5656,112.0775 457.5656,108.9525 Q457.5656,105.8275 458.8781,104.1712 Q460.2063,102.515 462.7063,102.515 Q463.4094,102.515 464.05,102.6712 Q464.7063,102.8275 465.2688,103.1244 L465.2688,105.8431 Q464.6438,105.265 464.05,104.9994 Q463.4563,104.7181 462.8313,104.7181 Q461.4875,104.7181 460.8,105.7962 Q460.1125,106.8587 460.1125,108.9525 Q460.1125,111.0462 460.8,112.1244 Q461.4875,113.1869 462.8313,113.1869 Q463.4563,113.1869 464.05,112.9212 Q464.6438,112.64 465.2688,112.0619 L465.2688,114.7806 Z " fill="#000000"/><text fill="#000000" font-family="sans-serif" font-size="14" lengthAdjust="spacing" textLength="249" x="476.7" y="113.9867">InstantaneousVectorDifferentiation4</text><line style="stroke:#181818;stroke-width:0.5;" x1="446.5" x2="729.5" y1="125.14" y2="125.14"/><line style="stroke:#181818;stroke-width:0.5;" x1="446.5" x2="729.5" y1="133.14" y2="133.14"/><ellipse cx="456.5" cy="146.7884" fill="#84BE84" rx="3" ry="3" style="stroke:#038048;stroke-width:1.0;"/><text fill="#000000" font-family="sans-serif" font-size="14" lengthAdjust="spacing" textLength="259" x="465.5" y="150.1351">apply(v : StateVector4) : StateVector4</text></g><!--class VD4--><g id="elem_VD4"><rect codeLine="28" fill="#F1F1F1" height="64.2969" id="VD4" rx="2.5" ry="2.5" style="stroke:#181818;stroke-width:0.5;" width="370" x="886" y="307.07"/><ellipse cx="991.75" cy="323.07" fill="#ADD1B2" rx="11" ry="11" style="stroke:#181818;stroke-width:1.0;"/><path d="M994.7188,328.7106 Q994.1406,329.0075 993.5,329.1481 Q992.8594,329.3044 992.1563,329.3044 Q989.6563,329.3044 988.3281,327.6637 Q987.0156,326.0075 987.0156,322.8825 Q987.0156,319.7575 988.3281,318.1012 Q989.6563,316.445 992.1563,316.445 Q992.8594,316.445 993.5,316.6012 Q994.1563,316.7575 994.7188,317.0544 L994.7188,319.7731 Q994.0938,319.195 993.5,318.9294 Q992.9063,318.6481 992.2813,318.6481 Q990.9375,318.6481 990.25,319.7262 Q989.5625,320.7887 989.5625,322.8825 Q989.5625,324.9762 990.25,326.0544 Q990.9375,327.1169 992.2813,327.1169 Q992.9063,327.1169 993.5,326.8512 Q994.0938,326.57 994.7188,325.9919 L994.7188,328.7106 Z " fill="#000000"/><text fill="#000000" font-family="sans-serif" font-size="14" lengthAdjust="spacing" textLength="150" x="1012.25" y="327.9167">VectorDifferentiation4</text><line style="stroke:#181818;stroke-width:0.5;" x1="887" x2="1255" y1="339.07" y2="339.07"/><line style="stroke:#181818;stroke-width:0.5;" x1="887" x2="1255" y1="347.07" y2="347.07"/><ellipse cx="897" cy="360.7184" fill="#84BE84" rx="3" ry="3" style="stroke:#038048;stroke-width:1.0;"/><text fill="#000000" font-family="sans-serif" font-size="14" lengthAdjust="spacing" textLength="344" x="906" y="364.0651">apply(dt : Double, v : StateVector4) : StateVector4</text></g><!--class IVDF--><g id="elem_IVDF"><rect codeLine="32" fill="#F1F1F1" height="80.5938" id="IVDF" rx="2.5" ry="2.5" style="stroke:#181818;stroke-width:0.5;" width="563" x="288.5" y="298.92"/><ellipse cx="420.75" cy="314.92" fill="#ADD1B2" rx="11" ry="11" style="stroke:#181818;stroke-width:1.0;"/><path d="M423.7188,320.5606 Q423.1406,320.8575 422.5,320.9981 Q421.8594,321.1544 421.1563,321.1544 Q418.6563,321.1544 417.3281,319.5137 Q416.0156,317.8575 416.0156,314.7325 Q416.0156,311.6075 417.3281,309.9512 Q418.6563,308.295 421.1563,308.295 Q421.8594,308.295 422.5,308.4512 Q423.1563,308.6075 423.7188,308.9044 L423.7188,311.6231 Q423.0938,311.045 422.5,310.7794 Q421.9063,310.4981 421.2813,310.4981 Q419.9375,310.4981 419.25,311.5762 Q418.5625,312.6387 418.5625,314.7325 Q418.5625,316.8262 419.25,317.9044 Q419.9375,318.9669 421.2813,318.9669 Q421.9063,318.9669 422.5,318.7012 Q423.0938,318.42 423.7188,317.8419 L423.7188,320.5606 Z " fill="#000000"/><text fill="#000000" font-family="sans-serif" font-size="14" lengthAdjust="spacing" textLength="290" x="441.25" y="319.7667">InstantaneousVectorDifferentiationFactory</text><line style="stroke:#181818;stroke-width:0.5;" x1="289.5" x2="850.5" y1="330.92" y2="330.92"/><line style="stroke:#181818;stroke-width:0.5;" x1="289.5" x2="850.5" y1="338.92" y2="338.92"/><ellipse cx="299.5" cy="352.5684" fill="#84BE84" rx="3" ry="3" style="stroke:#038048;stroke-width:1.0;"/><text fill="#000000" font-family="sans-serif" font-size="14" lengthAdjust="spacing" textLength="521" x="308.5" y="355.9151">instantaneousVectorDifferentiation4() : InstantaneousVectorDifferentiation4</text><ellipse cx="299.5" cy="368.8653" fill="#84BE84" rx="3" ry="3" style="stroke:#038048;stroke-width:1.0;"/><text fill="#000000" font-family="sans-serif" font-size="14" lengthAdjust="spacing" textLength="537" x="308.5" y="372.212">altInstantaneousVectorDifferentiation4() : InstantaneousVectorDifferentiation4</text></g><!--class VDF--><g id="elem_VDF"><rect codeLine="37" fill="#F1F1F1" height="80.5938" id="VDF" rx="2.5" ry="2.5" style="stroke:#181818;stroke-width:0.5;" width="439" x="798.5" y="85"/><ellipse cx="918.25" cy="101" fill="#ADD1B2" rx="11" ry="11" style="stroke:#181818;stroke-width:1.0;"/><path d="M921.2188,106.6406 Q920.6406,106.9375 920,107.0781 Q919.3594,107.2344 918.6563,107.2344 Q916.1563,107.2344 914.8281,105.5938 Q913.5156,103.9375 913.5156,100.8125 Q913.5156,97.6875 914.8281,96.0313 Q916.1563,94.375 918.6563,94.375 Q919.3594,94.375 920,94.5313 Q920.6563,94.6875 921.2188,94.9844 L921.2188,97.7031 Q920.5938,97.125 920,96.8594 Q919.4063,96.5781 918.7813,96.5781 Q917.4375,96.5781 916.75,97.6563 Q916.0625,98.7188 916.0625,100.8125 Q916.0625,102.9063 916.75,103.9844 Q917.4375,105.0469 918.7813,105.0469 Q919.4063,105.0469 920,104.7813 Q920.5938,104.5 921.2188,103.9219 L921.2188,106.6406 Z " fill="#000000"/><text fill="#000000" font-family="sans-serif" font-size="14" lengthAdjust="spacing" textLength="191" x="938.75" y="105.8467">VectorDifferentiationFactory</text><line style="stroke:#181818;stroke-width:0.5;" x1="799.5" x2="1236.5" y1="117" y2="117"/><line style="stroke:#181818;stroke-width:0.5;" x1="799.5" x2="1236.5" y1="125" y2="125"/><ellipse cx="809.5" cy="138.6484" fill="#84BE84" rx="3" ry="3" style="stroke:#038048;stroke-width:1.0;"/><text fill="#000000" font-family="sans-serif" font-size="14" lengthAdjust="spacing" textLength="413" x="818.5" y="141.9951">normalSpeedvectorDifferentiation4() : VectorDifferentiation4</text><ellipse cx="809.5" cy="154.9453" fill="#84BE84" rx="3" ry="3" style="stroke:#038048;stroke-width:1.0;"/><text fill="#000000" font-family="sans-serif" font-size="14" lengthAdjust="spacing" textLength="391" x="818.5" y="158.292">lowSpeedVectorDifferentiation4() : VectorDifferentiation4</text></g><!--class DIF--><g id="elem_DIF"><rect codeLine="49" fill="#F1F1F1" height="64.2969" id="DIF" rx="2.5" ry="2.5" style="stroke:#181818;stroke-width:0.5;" width="659" x="741.5" y="480.26"/><ellipse cx="1022.25" cy="496.26" fill="#ADD1B2" rx="11" ry="11" style="stroke:#181818;stroke-width:1.0;"/><path d="M1025.2188,501.9006 Q1024.6406,502.1975 1024,502.3381 Q1023.3594,502.4944 1022.6563,502.4944 Q1020.1563,502.4944 1018.8281,500.8537 Q1017.5156,499.1975 1017.5156,496.0725 Q1017.5156,492.9475 1018.8281,491.2912 Q1020.1563,489.635 1022.6563,489.635 Q1023.3594,489.635 1024,489.7912 Q1024.6563,489.9475 1025.2188,490.2444 L1025.2188,492.9631 Q1024.5938,492.385 1024,492.1194 Q1023.4063,491.8381 1022.7813,491.8381 Q1021.4375,491.8381 1020.75,492.9162 Q1020.0625,493.9787 1020.0625,496.0725 Q1020.0625,498.1662 1020.75,499.2444 Q1021.4375,500.3069 1022.7813,500.3069 Q1023.4063,500.3069 1024,500.0412 Q1024.5938,499.76 1025.2188,499.1819 L1025.2188,501.9006 Z " fill="#000000"/><text fill="#000000" font-family="sans-serif" font-size="14" lengthAdjust="spacing" textLength="89" x="1042.75" y="501.1067">Differentiator</text><line style="stroke:#181818;stroke-width:0.5;" x1="742.5" x2="1399.5" y1="512.26" y2="512.26"/><line style="stroke:#181818;stroke-width:0.5;" x1="742.5" x2="1399.5" y1="520.26" y2="520.26"/><ellipse cx="752.5" cy="533.9084" fill="#84BE84" rx="3" ry="3" style="stroke:#038048;stroke-width:1.0;"/><text fill="#000000" font-family="sans-serif" font-size="14" lengthAdjust="spacing" textLength="633" x="761.5" y="537.2551">differentiate(h : double, sv : StateVector4, dif : BiFunction&lt;Double, Double&gt;) : StateVector4</text></g><!--class TPCD--><g id="elem_TPCD"><rect codeLine="53" fill="#F1F1F1" height="64.2969" id="TPCD" rx="2.5" ry="2.5" style="stroke:#181818;stroke-width:0.5;" width="659" x="47.5" y="620.85"/><ellipse cx="266.75" cy="636.85" fill="#ADD1B2" rx="11" ry="11" style="stroke:#181818;stroke-width:1.0;"/><path d="M269.7188,642.4906 Q269.1406,642.7875 268.5,642.9281 Q267.8594,643.0844 267.1563,643.0844 Q264.6563,643.0844 263.3281,641.4437 Q262.0156,639.7875 262.0156,636.6625 Q262.0156,633.5375 263.3281,631.8812 Q264.6563,630.225 267.1563,630.225 Q267.8594,630.225 268.5,630.3812 Q269.1563,630.5375 269.7188,630.8344 L269.7188,633.5531 Q269.0938,632.975 268.5,632.7094 Q267.9063,632.4281 267.2813,632.4281 Q265.9375,632.4281 265.25,633.5062 Q264.5625,634.5687 264.5625,636.6625 Q264.5625,638.7562 265.25,639.8344 Q265.9375,640.8969 267.2813,640.8969 Q267.9063,640.8969 268.5,640.6312 Q269.0938,640.35 269.7188,639.7719 L269.7188,642.4906 Z " fill="#000000"/><text fill="#000000" font-family="sans-serif" font-size="14" lengthAdjust="spacing" textLength="212" x="287.25" y="641.6967">ThreePointCenteredDifference</text><line style="stroke:#181818;stroke-width:0.5;" x1="48.5" x2="705.5" y1="652.85" y2="652.85"/><line style="stroke:#181818;stroke-width:0.5;" x1="48.5" x2="705.5" y1="660.85" y2="660.85"/><ellipse cx="58.5" cy="674.4984" fill="#84BE84" rx="3" ry="3" style="stroke:#038048;stroke-width:1.0;"/><text fill="#000000" font-family="sans-serif" font-size="14" lengthAdjust="spacing" textLength="633" x="67.5" y="677.8451">differentiate(h : double, sv : StateVector4, dif : BiFunction&lt;Double, Double&gt;) : StateVector4</text></g><!--class FPCD--><g id="elem_FPCD"><rect codeLine="57" fill="#F1F1F1" height="64.2969" id="FPCD" rx="2.5" ry="2.5" style="stroke:#181818;stroke-width:0.5;" width="659" x="741.5" y="620.85"/><ellipse cx="967.75" cy="636.85" fill="#ADD1B2" rx="11" ry="11" style="stroke:#181818;stroke-width:1.0;"/><path d="M970.7188,642.4906 Q970.1406,642.7875 969.5,642.9281 Q968.8594,643.0844 968.1563,643.0844 Q965.6563,643.0844 964.3281,641.4437 Q963.0156,639.7875 963.0156,636.6625 Q963.0156,633.5375 964.3281,631.8812 Q965.6563,630.225 968.1563,630.225 Q968.8594,630.225 969.5,630.3812 Q970.1563,630.5375 970.7188,630.8344 L970.7188,633.5531 Q970.0938,632.975 969.5,632.7094 Q968.9063,632.4281 968.2813,632.4281 Q966.9375,632.4281 966.25,633.5062 Q965.5625,634.5687 965.5625,636.6625 Q965.5625,638.7562 966.25,639.8344 Q966.9375,640.8969 968.2813,640.8969 Q968.9063,640.8969 969.5,640.6312 Q970.0938,640.35 970.7188,639.7719 L970.7188,642.4906 Z " fill="#000000"/><text fill="#000000" font-family="sans-serif" font-size="14" lengthAdjust="spacing" textLength="198" x="988.25" y="641.6967">FivePointCenteredDifference</text><line style="stroke:#181818;stroke-width:0.5;" x1="742.5" x2="1399.5" y1="652.85" y2="652.85"/><line style="stroke:#181818;stroke-width:0.5;" x1="742.5" x2="1399.5" y1="660.85" y2="660.85"/><ellipse cx="752.5" cy="674.4984" fill="#84BE84" rx="3" ry="3" style="stroke:#038048;stroke-width:1.0;"/><text fill="#000000" font-family="sans-serif" font-size="14" lengthAdjust="spacing" textLength="633" x="761.5" y="677.8451">differentiate(h : double, sv : StateVector4, dif : BiFunction&lt;Double, Double&gt;) : StateVector4</text></g><!--class ODES--><g id="elem_ODES"><rect codeLine="69" fill="#F1F1F1" height="80.5938" id="ODES" rx="2.5" ry="2.5" style="stroke:#181818;stroke-width:0.5;" width="665" x="1564.5" y="472.11"/><ellipse cx="1837.25" cy="488.11" fill="#ADD1B2" rx="11" ry="11" style="stroke:#181818;stroke-width:1.0;"/><path d="M1840.2188,493.7506 Q1839.6406,494.0475 1839,494.1881 Q1838.3594,494.3444 1837.6563,494.3444 Q1835.1563,494.3444 1833.8281,492.7037 Q1832.5156,491.0475 1832.5156,487.9225 Q1832.5156,484.7975 1833.8281,483.1412 Q1835.1563,481.485 1837.6563,481.485 Q1838.3594,481.485 1839,481.6412 Q1839.6563,481.7975 1840.2188,482.0944 L1840.2188,484.8131 Q1839.5938,484.235 1839,483.9694 Q1838.4063,483.6881 1837.7813,483.6881 Q1836.4375,483.6881 1835.75,484.7662 Q1835.0625,485.8287 1835.0625,487.9225 Q1835.0625,490.0162 1835.75,491.0944 Q1836.4375,492.1569 1837.7813,492.1569 Q1838.4063,492.1569 1839,491.8912 Q1839.5938,491.61 1840.2188,491.0319 L1840.2188,493.7506 Z " fill="#000000"/><text fill="#000000" font-family="sans-serif" font-size="14" lengthAdjust="spacing" textLength="73" x="1857.75" y="492.9567">ODESolver</text><rect fill="#FFFFFF" height="15.9688" style="stroke:#181818;stroke-width:1.0;stroke-dasharray:2.0,2.0;" width="36" x="2196.5" y="469.11"/><text fill="#000000" font-family="sans-serif" font-size="12" font-style="italic" lengthAdjust="spacing" textLength="34" x="2197.5" y="481.2487">State</text><line style="stroke:#181818;stroke-width:0.5;" x1="1565.5" x2="2228.5" y1="504.11" y2="504.11"/><line style="stroke:#181818;stroke-width:0.5;" x1="1565.5" x2="2228.5" y1="512.11" y2="512.11"/><ellipse cx="1575.5" cy="525.7584" fill="#84BE84" rx="3" ry="3" style="stroke:#038048;stroke-width:1.0;"/><text fill="#000000" font-family="sans-serif" font-size="14" lengthAdjust="spacing" textLength="639" x="1584.5" y="529.1051">solve(h : double, endTime : double, sv : State, dif : BiFunction&lt;Double, State, State&gt;) : State</text><ellipse cx="1575.5" cy="542.0553" fill="#84BE84" rx="3" ry="3" style="stroke:#038048;stroke-width:1.0;"/><text fill="#000000" font-family="sans-serif" font-size="14" lengthAdjust="spacing" textLength="535" x="1584.5" y="545.402">nextStep(h : double, sv : State, dif : BiFunction&lt;Double, State, State&gt;) : State</text></g><!--class RK4--><g id="elem_RK4"><rect codeLine="74" fill="#F1F1F1" height="80.5938" id="RK4" rx="2.5" ry="2.5" style="stroke:#181818;stroke-width:0.5;" width="881" x="1456.5" y="612.71"/><ellipse cx="1878.75" cy="628.71" fill="#ADD1B2" rx="11" ry="11" style="stroke:#181818;stroke-width:1.0;"/><path d="M1881.7188,634.3506 Q1881.1406,634.6475 1880.5,634.7881 Q1879.8594,634.9444 1879.1563,634.9444 Q1876.6563,634.9444 1875.3281,633.3037 Q1874.0156,631.6475 1874.0156,628.5225 Q1874.0156,625.3975 1875.3281,623.7412 Q1876.6563,622.085 1879.1563,622.085 Q1879.8594,622.085 1880.5,622.2412 Q1881.1563,622.3975 1881.7188,622.6944 L1881.7188,625.4131 Q1881.0938,624.835 1880.5,624.5694 Q1879.9063,624.2881 1879.2813,624.2881 Q1877.9375,624.2881 1877.25,625.3662 Q1876.5625,626.4287 1876.5625,628.5225 Q1876.5625,630.6162 1877.25,631.6944 Q1877.9375,632.7569 1879.2813,632.7569 Q1879.9063,632.7569 1880.5,632.4912 Q1881.0938,632.21 1881.7188,631.6319 L1881.7188,634.3506 Z " fill="#000000"/><text fill="#000000" font-family="sans-serif" font-size="14" lengthAdjust="spacing" textLength="28" x="1899.25" y="633.5567">RK4</text><line style="stroke:#181818;stroke-width:0.5;" x1="1457.5" x2="2336.5" y1="644.71" y2="644.71"/><line style="stroke:#181818;stroke-width:0.5;" x1="1457.5" x2="2336.5" y1="652.71" y2="652.71"/><ellipse cx="1467.5" cy="666.3584" fill="#84BE84" rx="3" ry="3" style="stroke:#038048;stroke-width:1.0;"/><text fill="#000000" font-family="sans-serif" font-size="14" lengthAdjust="spacing" textLength="855" x="1476.5" y="669.7051">solve(h : double, endTime : double, sv : StateVector4, dif : BiFunction&lt;Double, StateVector4, StateVector4&gt;) : StateVector4</text><ellipse cx="1467.5" cy="682.6553" fill="#84BE84" rx="3" ry="3" style="stroke:#038048;stroke-width:1.0;"/><text fill="#000000" font-family="sans-serif" font-size="14" lengthAdjust="spacing" textLength="751" x="1476.5" y="686.002">nextStep(h : double, sv : StateVector4, dif : BiFunction&lt;Double, StateVector4, StateVector4&gt;) : StateVector4</text></g><!--class RK2--><g id="elem_RK2"><rect codeLine="79" fill="#F1F1F1" height="80.5938" id="RK2" rx="2.5" ry="2.5" style="stroke:#181818;stroke-width:0.5;" width="881" x="2372.5" y="612.71"/><ellipse cx="2794.75" cy="628.71" fill="#ADD1B2" rx="11" ry="11" style="stroke:#181818;stroke-width:1.0;"/><path d="M2797.7188,634.3506 Q2797.1406,634.6475 2796.5,634.7881 Q2795.8594,634.9444 2795.1563,634.9444 Q2792.6563,634.9444 2791.3281,633.3037 Q2790.0156,631.6475 2790.0156,628.5225 Q2790.0156,625.3975 2791.3281,623.7412 Q2792.6563,622.085 2795.1563,622.085 Q2795.8594,622.085 2796.5,622.2412 Q2797.1563,622.3975 2797.7188,622.6944 L2797.7188,625.4131 Q2797.0938,624.835 2796.5,624.5694 Q2795.9063,624.2881 2795.2813,624.2881 Q2793.9375,624.2881 2793.25,625.3662 Q2792.5625,626.4287 2792.5625,628.5225 Q2792.5625,630.6162 2793.25,631.6944 Q2793.9375,632.7569 2795.2813,632.7569 Q2795.9063,632.7569 2796.5,632.4912 Q2797.0938,632.21 2797.7188,631.6319 L2797.7188,634.3506 Z " fill="#000000"/><text fill="#000000" font-family="sans-serif" font-size="14" lengthAdjust="spacing" textLength="28" x="2815.25" y="633.5567">RK2</text><line style="stroke:#181818;stroke-width:0.5;" x1="2373.5" x2="3252.5" y1="644.71" y2="644.71"/><line style="stroke:#181818;stroke-width:0.5;" x1="2373.5" x2="3252.5" y1="652.71" y2="652.71"/><ellipse cx="2383.5" cy="666.3584" fill="#84BE84" rx="3" ry="3" style="stroke:#038048;stroke-width:1.0;"/><text fill="#000000" font-family="sans-serif" font-size="14" lengthAdjust="spacing" textLength="855" x="2392.5" y="669.7051">solve(h : double, endTime : double, sv : StateVector4, dif : BiFunction&lt;Double, StateVector4, StateVector4&gt;) : StateVector4</text><ellipse cx="2383.5" cy="682.6553" fill="#84BE84" rx="3" ry="3" style="stroke:#038048;stroke-width:1.0;"/><text fill="#000000" font-family="sans-serif" font-size="14" lengthAdjust="spacing" textLength="751" x="2392.5" y="686.002">nextStep(h : double, sv : StateVector4, dif : BiFunction&lt;Double, StateVector4, StateVector4&gt;) : StateVector4</text></g><!--reverse link IVD4 to IVDF--><g id="link_IVD4_IVDF"><path codeLine="42" d="M584.8335,163.5386 C581.6635,200.9586 576.84,257.69 573.37,298.5 " fill="none" id="IVD4-backto-IVDF" style="stroke:#181818;stroke-width:1.0;"/><polygon fill="#181818" points="585.34,157.56,580.5946,166.1902,584.9179,162.5422,588.566,166.8655,585.34,157.56" style="stroke:#181818;stroke-width:1.0;"/></g><!--link VDF to VD4--><g id="link_VDF_VD4"><path codeLine="43" d="M1027.84,165.66 C1038.02,206.36 1052.2533,263.2795 1061.6533,300.8395 " fill="none" id="VDF-to-VD4" style="stroke:#181818;stroke-width:1.0;"/><polygon fill="#181818" points="1063.11,306.66,1064.8053,296.9581,1061.8961,301.8096,1057.0447,298.9004,1063.11,306.66" style="stroke:#181818;stroke-width:1.0;"/></g><!--reverse link IVD4 to VDF--><g id="link_IVD4_VDF"><path codeLine="44" d="M736.77,125.29 C759.21,125.29 775.65,125.29 798.09,125.29 " fill="none" id="IVD4-backto-VDF" style="stroke:#181818;stroke-width:1.0;"/><polygon fill="#181818" points="730.77,125.29,739.77,129.29,735.77,125.29,739.77,121.29,730.77,125.29" style="stroke:#181818;stroke-width:1.0;"/></g><!--reverse link DIF to FPCD--><g id="link_DIF_FPCD"><path codeLine="61" d="M1071,562.86 C1071,585.54 1071,598.03 1071,620.68 " fill="none" id="DIF-backto-FPCD" style="stroke:#181818;stroke-width:1.0;"/><polygon fill="none" points="1071,544.86,1065,562.86,1077,562.86,1071,544.86" style="stroke:#181818;stroke-width:1.0;"/></g><!--reverse link DIF to TPCD--><g id="link_DIF_TPCD"><path codeLine="62" d="M894.9986,548.5553 C781.9886,571.1253 648.26,597.83 535.27,620.4 " fill="none" id="DIF-backto-TPCD" style="stroke:#181818;stroke-width:1.0;"/><polygon fill="none" points="912.65,545.03,893.8235,542.6715,896.1737,554.4391,912.65,545.03" style="stroke:#181818;stroke-width:1.0;"/></g><!--link PE to DIF--><g id="link_PE_DIF"><path codeLine="64" d="M1464.71,407.88 C1370.35,432.69 1273.7827,458.0839 1197.0927,478.2539 " fill="none" id="PE-to-DIF" style="stroke:#181818;stroke-width:1.0;"/><polygon fill="#181818" points="1191.29,479.78,1201.0114,481.3592,1196.1256,478.5082,1198.9766,473.6223,1191.29,479.78" style="stroke:#181818;stroke-width:1.0;"/></g><!--reverse link VD4 to DIF--><g id="link_VD4_DIF"><path codeLine="65" d="M1071,377.62 C1071,408.41 1071,449.1 1071,479.92 " fill="none" id="VD4-backto-DIF" style="stroke:#181818;stroke-width:1.0;"/><polygon fill="#181818" points="1071,371.62,1067,380.62,1071,376.62,1075,380.62,1071,371.62" style="stroke:#181818;stroke-width:1.0;"/></g><!--reverse link ODES to RK4--><g id="link_ODES_RK4"><path codeLine="84" d="M1897,571.12 C1897,589.68 1897,593.72 1897,612.28 " fill="none" id="ODES-backto-RK4" style="stroke:#181818;stroke-width:1.0;"/><polygon fill="none" points="1897,553.12,1891,571.12,1903,571.12,1897,553.12" style="stroke:#181818;stroke-width:1.0;"/></g><!--reverse link ODES to RK2--><g id="link_ODES_RK2"><path codeLine="85" d="M2177.5974,555.8634 C2300.1074,574.4034 2427.74,593.71 2550.24,612.25 " fill="none" id="ODES-backto-RK2" style="stroke:#181818;stroke-width:1.0;"/><polygon fill="none" points="2159.8,553.17,2176.6996,561.7958,2178.4951,549.9309,2159.8,553.17" style="stroke:#181818;stroke-width:1.0;"/></g><!--link PE to ODES--><g id="link_PE_ODES"><path codeLine="87" d="M1795.96,412.57 C1816.67,432.83 1834.1311,449.9041 1852.1211,467.5041 " fill="none" id="PE-to-ODES" style="stroke:#181818;stroke-width:1.0;"/><polygon fill="#181818" points="1856.41,471.7,1852.774,462.5469,1852.8359,468.2034,1847.1794,468.2654,1856.41,471.7" style="stroke:#181818;stroke-width:1.0;"/></g><!--SRC=[xLPDQ-Cm4BtdLmYVN3QzX9wMuiFMCPZ2RgX3xbfRQGIAP2pP6xFR_xxwS1p9dsbt2ptK11AFPjxCF3rfKg1KGFfC4F3oGyrnoayUW1nimE_50ZHFIY3dm4i456Wd0rXnfvsItPrq0zRpvGI-WeoLFmboxVM8lHeBgCOYx2hyI_GIrDRlobwme6vSB9XbFg_agWrwqtbtGuub4JWdjSzJI61nGHwBUkdnk354h-apfiYmlUxoo2seoNfOXX96AgGgyNw4Q_DoRmS4dXkIuVqU5OWA3EMoZ0iTW-kSsyNsoLe2km2LVmdw-77K8PwYaqW4olrfiha2zkUeBIuQjbDZHZMvuVS1BSTKCapb1x6I6zpGZJKIZtTXJ-CmL_j_jMpw0fZ89zCDPik4ul4iwBUddkyxWifOdxkFkjtZUURqZbt1SATH8k9tmBwIVhljWQufAuwG93b2MJLUrpLj4lPBm-pU36Drf3Vejinl0wtKrgxDqjYp4RGNjlFq4M85DqVeQU08kRU6yOjxnDbmo3zOr_B0NIATfUqRZagQgfxlpuetty4hXBuz50Xj6ARYGIQN5MJdUbDpvsut3-57AJR2rMIjqKUeLHUXjFOdK1lTshSTUxiWfvhIeEsh16BaEYv0EL3qlTzeRvrOdJTyTUPSe1sLiJT6zG2noK4qs-8Z6gHhWgTctQHhsHePQeV_ZDuNpDEZ6HVo-zzQdbU8w-RyhvWUtZDql4_c8QfM3LMhJwf6g58oQawmEaMMVUNOkqUxTPPOYvU_]--></g></svg>